<?xml version="1.0" encoding="UTF-8" standalone="no"?>
<!-- Created with Inkscape (http://www.inkscape.org/) -->

<svg
   xmlns:dc="http://purl.org/dc/elements/1.1/"
   xmlns:cc="http://creativecommons.org/ns#"
   xmlns:rdf="http://www.w3.org/1999/02/22-rdf-syntax-ns#"
   xmlns:svg="http://www.w3.org/2000/svg"
   xmlns="http://www.w3.org/2000/svg"
   xmlns:sodipodi="http://sodipodi.sourceforge.net/DTD/sodipodi-0.dtd"
   xmlns:inkscape="http://www.inkscape.org/namespaces/inkscape"
   width="807.59393"
   height="212.57578"
   viewBox="0 0 807.59394 212.57578"
   id="svg2"
   version="1.1"
   inkscape:version="0.91 r13725"
   sodipodi:docname="scipy.svg">
  <defs
     id="defs4" />
  <sodipodi:namedview
     id="base"
     pagecolor="#ffffff"
     bordercolor="#666666"
     borderopacity="1.0"
     inkscape:pageopacity="0.0"
     inkscape:pageshadow="2"
     inkscape:zoom="1.4"
     inkscape:cx="445.45808"
     inkscape:cy="61.76849"
     inkscape:document-units="px"
     inkscape:current-layer="layer1"
     showgrid="false"
     fit-margin-top="0"
     fit-margin-left="0"
     fit-margin-right="0"
     fit-margin-bottom="0"
     inkscape:window-width="3086"
     inkscape:window-height="1758"
     inkscape:window-x="2034"
     inkscape:window-y="42"
     inkscape:window-maximized="1"
     units="px" />
  <metadata
     id="metadata7">
    <rdf:RDF>
      <cc:Work
         rdf:about="">
        <dc:format>image/svg+xml</dc:format>
        <dc:type
           rdf:resource="http://purl.org/dc/dcmitype/StillImage" />
        <dc:title></dc:title>
      </cc:Work>
    </rdf:RDF>
  </metadata>
  <g
     inkscape:label="Calque 1"
     inkscape:groupmode="layer"
     id="layer1"
     transform="translate(179.9343,-737.43162)">
    <g
       id="g4147"
       transform="matrix(3,0,0,3,-818.4396,-1819.317)">
      <path
         style="fill:#d4a2a5"
         d="m 233.20779,919.50703 c -4.26933,-2.15227 -9.20807,-5.63128 -10.97499,-7.73114 l -3.21258,-3.81793 6.51325,-4.85953 c 3.58229,-2.67275 6.92179,-4.85954 7.4211,-4.85954 0.49931,0 3.22855,2.77183 6.06498,6.15963 6.04557,7.22078 10.42923,8.72621 16.71887,5.74158 7.12394,-3.38053 9.36563,-12.44242 4.58226,-18.52348 -1.7571,-2.2338 -4.70197,-3.69533 -9.6875,-4.80789 -11.75761,-2.6238 -15.87897,-9.30312 -10.19725,-16.52627 3.8459,-4.88926 10.30802,-4.58479 14.70957,0.69306 8.90154,10.67376 9.82755,11.29275 15.52395,10.37704 5.78879,-0.93055 10.51449,-4.49531 9.06609,-6.83887 -1.15272,-1.86513 -7.13885,-0.49445 -8.51494,1.94973 -1.97992,3.51665 -5.82676,1.84895 -10.39164,-4.50503 -5.11681,-7.12224 -7.46939,-8.7195 -12.84276,-8.7195 -8.82748,0 -14.96981,6.98249 -13.41816,15.25351 1.06983,5.70267 4.0292,8.26167 11.97971,10.35897 9.5962,2.53143 12.54746,4.87189 12.54746,9.95061 0,8.54601 -9.93201,11.9815 -15.38331,5.32111 -9.53275,-11.64713 -10.35741,-11.83545 -19.65275,-4.4879 -7.12479,5.63182 -7.63034,5.49739 -9.95248,-2.6463 -5.11371,-17.93364 5.71569,-38.12109 23.17202,-43.19578 8.61192,-2.50355 19.18447,-1.9205 26.28651,1.44964 4.84213,2.29774 13.65887,10.29118 16.40281,14.87114 1.27301,2.1248 1.68491,2.22403 2.74453,0.6612 1.42916,-2.10785 1.98972,-1.74388 3.15374,2.0477 0.69749,2.27195 0.42262,2.60195 -1.70409,2.0458 -2.34767,-0.61393 -2.43392,-0.37106 -1.16291,3.27495 1.94109,5.56822 0.80819,19.77377 -2.0479,25.6789 -5.74759,11.88346 -16.26592,18.46463 -30.60617,19.14984 -8.49243,0.40579 -10.10576,0.0796 -17.13742,-3.46525 z"
         id="path4161"
         inkscape:connector-curvature="0" />
      <path
         style="fill:#a89697"
         d="m 237.00049,921.26757 c -4.86542,-1.79449 -16.65528,-10.90349 -16.65528,-12.8681 0,-0.48232 2.90335,-3.0445 6.4519,-5.69373 l 6.45189,-4.81679 3.51448,4.23747 c 1.93296,2.33061 3.52961,4.6449 3.5481,5.14287 0.0594,1.59928 7.29453,4.7196 10.94342,4.7196 7.97844,0 14.15692,-9.09781 11.54766,-17.00393 -1.57191,-4.76295 -4.51876,-6.65893 -15.05701,-9.68762 -5.22204,-1.50081 -7.34216,-2.81127 -8.4375,-5.21528 -2.13264,-4.68065 -1.82637,-6.59338 1.60524,-10.02499 5.12017,-5.12016 8.92786,-4.11354 16.85874,4.45688 6.73447,7.27753 7.14185,7.509 12.3843,7.03679 5.68187,-0.51179 11.17139,-4.46069 9.6417,-6.93577 -1.26392,-2.04506 -8.20292,-1.73615 -8.20292,0.36518 0,0.9577 -0.84375,2.06504 -1.875,2.46077 -2.11065,0.80993 -5.625,-0.22705 -5.625,-1.65978 0,-2.2051 -10.24452,-12.3326 -13.23411,-13.08294 -7.8696,-1.97514 -16.76589,4.73523 -16.76589,12.64634 0,7.40023 2.97588,11.31761 10.23522,13.4734 3.55769,1.05652 7.11214,1.92095 7.89876,1.92095 2.36025,0 6.86602,5.58991 6.86602,8.51806 0,3.84713 -4.33784,7.73194 -8.6336,7.73194 -2.82929,0 -4.79191,-1.38347 -8.8664,-6.25 -6.43211,-7.68245 -9.61315,-8.02373 -17.36341,-1.86287 -3.01863,2.39958 -5.88147,4.36287 -6.36186,4.36287 -1.49231,0 -3.63832,-5.87082 -4.48837,-12.2788 -3.0417,-22.92944 19.40472,-43.0188 42.33299,-37.88768 8.95692,2.00447 17.83628,7.97127 22.27287,14.96705 2.74738,4.33217 3.7171,5.11902 4.33245,3.51544 0.43604,-1.13631 1.38887,-2.06601 2.1174,-2.06601 0.72853,0 0.95448,0.37012 0.50211,0.82249 -0.45237,0.45237 -0.19599,1.57737 0.56972,2.5 1.08737,1.31019 0.83335,1.67751 -1.16009,1.67751 -2.34617,0 -2.44772,0.37856 -1.25749,4.6875 1.71254,6.19979 0.62481,18.72513 -2.09456,24.11898 -3.03086,6.01171 -10.34006,13.41983 -16.27676,16.49705 -6.55434,3.39736 -20.49633,4.13931 -27.71972,1.47515 z"
         id="path4159"
         inkscape:connector-curvature="0" />
      <path
         style="fill:#945c60"
         d="m 239.37469,921.47585 c -2.94004,-0.95849 -6.87754,-2.71423 -8.75,-3.90165 -3.98721,-2.52848 -10.27948,-8.22263 -10.27948,-9.30236 0,-0.41212 2.90335,-2.91687 6.4519,-5.5661 l 6.45189,-4.81679 3.51448,4.23747 c 1.93296,2.33061 3.52961,4.6449 3.5481,5.14287 0.0594,1.59928 7.29453,4.7196 10.94342,4.7196 7.97844,0 14.15692,-9.09781 11.54766,-17.00393 -1.57389,-4.76894 -4.51621,-6.6581 -15.11398,-9.70418 -5.62897,-1.61791 -7.32528,-2.73021 -8.50418,-5.57632 -1.92648,-4.65093 0.1767,-9.50468 4.98071,-11.49457 4.85219,-2.00984 7.92129,-0.69173 12.5955,5.40949 5.84856,7.63409 7.12556,8.37882 13.86455,8.0856 6.52906,-0.28409 10.58988,-3.14611 9.28578,-6.54453 -0.94719,-2.46834 -8.31583,-2.63878 -8.31583,-0.19235 0,0.95107 -1.16134,2.03291 -2.58076,2.40409 -2.01608,0.52722 -3.7243,-0.80306 -7.80711,-6.07977 -2.8745,-3.71506 -6.76629,-7.39251 -8.64842,-8.17211 -8.72536,-3.61417 -18.46371,3.27481 -18.46371,13.06135 0,7.66569 2.50257,10.32987 12.5,13.30723 11.83528,3.5247 15.69129,9.30871 10,15 -4.44261,4.44261 -9.11973,3.27333 -15,-3.75 -6.43089,-7.681 -9.22979,-7.94589 -17.76399,-1.68121 -7.14726,5.24657 -7.597,4.99222 -9.79885,-5.54173 -3.75728,-17.97544 9.03665,-36.65037 27.66981,-40.38882 13.78182,-2.7651 26.24603,2.41369 35.72726,14.84442 3.56823,4.67826 4.17835,5.03314 5.31057,3.08892 1.15078,-1.9761 1.28299,-1.98746 1.31719,-0.11325 0.0209,1.14583 0.74113,2.39509 1.60051,2.77613 0.85937,0.38104 0.4375,0.56854 -0.9375,0.41666 -1.84369,-0.20364 -2.41661,0.38018 -2.18234,2.22387 0.17472,1.375 0.66382,5.07794 1.08689,8.22874 1.01606,7.56698 -2.11109,18.16997 -7.40652,25.11274 -7.90425,10.36316 -24.70077,15.72918 -36.84355,11.77048 z"
         id="path4157"
         inkscape:connector-curvature="0" />
      <path
         style="fill:#6f5355"
         d="m 242.51329,921.87883 c -6.70348,-1.57933 -13.75303,-5.4172 -18.29695,-9.96112 l -3.91774,-3.91774 5.57332,-4.25554 c 6.68909,-5.1075 8.50401,-5.27731 10.78815,-1.00935 3.13791,5.86324 8.3688,9.25381 14.27656,9.25381 4.651,0 5.95655,-0.63433 9.4168,-4.57534 3.46181,-3.94279 3.92641,-5.25233 3.36043,-9.47202 -0.88519,-6.59956 -3.74257,-9.38778 -12.02617,-11.73508 -10.24013,-2.90172 -12.59248,-4.73197 -12.59248,-9.79761 0,-5.18791 1.18948,-6.02709 8.54296,-6.02709 5.24602,0 6.11606,0.4752 10.8403,5.92085 3.61022,4.16151 6.04356,5.89437 8.18912,5.83171 6.60149,-0.19279 9.62975,-0.84115 11.61109,-2.48598 2.42553,-2.01358 2.75873,-6.34567 0.50403,-6.55338 -3.7515,-0.34561 -6.66691,0.46017 -8.03062,2.21954 -1.9393,2.50197 -5.28497,1.72556 -7.5975,-1.7631 -1.82859,-2.75862 -1.76853,-2.8125 3.1351,-2.8125 2.74967,0 5.64743,-0.78081 6.43945,-1.73514 2.17815,-2.62452 -3.49348,-8.60884 -11.37058,-11.99748 -12.27751,-5.28164 -30.66527,-1.18388 -36.81694,8.20475 -2.52429,3.85255 -1.67619,4.76803 4.48703,4.84353 l 4.84379,0.0593 -0.19836,5.22453 c -0.29915,7.87931 3.23013,11.78313 13.0498,14.43467 7.65116,2.06599 12.37133,5.52302 12.37133,9.06071 0,3.37319 -5.16071,8.15509 -8.80111,8.15509 -2.82898,0 -4.51572,-1.20768 -7.72178,-5.52868 -7.03502,-9.48156 -9.79919,-9.71224 -20.05456,-1.67358 l -4.70245,3.68601 -2.04034,-4.80437 c -4.68966,-11.04273 -1.1226,-26.84389 8.08499,-35.81444 19.98134,-19.46694 52.83928,-9.44127 58.97946,17.99592 4.12453,18.43037 -7.88172,37.08431 -26.42872,41.06194 -6.98837,1.49873 -7.40063,1.49776 -13.89741,-0.0329 z m 40.90552,-48.7231 c -1.28258,-2.07526 -0.13139,-2.36303 1.66318,-0.41577 0.88648,0.96191 1.06031,1.74893 0.38627,1.74893 -0.67403,0 -1.59628,-0.59992 -2.04945,-1.33316 z"
         id="path4155"
         inkscape:connector-curvature="0" />
      <path
         style="fill:#ad1821"
         d="m 239.08712,920.89581 c -5.68394,-1.86476 -10.92077,-5.02809 -14.88257,-8.98988 l -3.90595,-3.90596 5.57332,-4.25554 c 6.68909,-5.1075 8.50401,-5.27731 10.78815,-1.00935 3.13791,5.86324 8.3688,9.25381 14.27656,9.25381 4.651,0 5.95655,-0.63433 9.4168,-4.57534 3.46181,-3.94279 3.92641,-5.25233 3.36043,-9.47202 -0.88519,-6.59956 -3.74257,-9.38778 -12.02617,-11.73508 -10.24013,-2.90172 -12.59248,-4.73197 -12.59248,-9.79761 0,-5.18791 1.18948,-6.02709 8.54296,-6.02709 5.24602,0 6.11606,0.4752 10.8403,5.92085 3.61022,4.16151 6.04356,5.89437 8.18912,5.83171 7.0078,-0.20465 9.79558,-0.88757 12.08583,-2.96065 1.33082,-1.20462 2.7959,-1.814 3.25573,-1.35416 0.45983,0.45983 0.83606,4.85061 0.83606,9.75729 0,14.41282 -6.088,24.1986 -19.22941,30.90914 -5.57663,2.84765 -19.13425,4.17965 -24.52868,2.40988 z m 3.4852,-19.4356 c -7.03502,-9.48156 -9.79919,-9.71224 -20.05456,-1.67358 l -4.70245,3.68601 -1.86005,-4.45173 c -2.59704,-6.21558 -2.3428,-18.97328 0.50296,-25.23874 1.26946,-2.79495 4.09467,-7.11649 6.27823,-9.60344 4.51804,-5.14576 15.29128,-10.98103 20.04169,-10.85547 2.17141,0.0574 1.31588,0.58946 -2.67568,1.66405 -3.22726,0.86883 -6.88351,2.34961 -8.125,3.29062 -4.68474,3.5509 -9.39137,8.16711 -10.59911,10.39548 -1.15891,2.13831 -0.74174,2.27731 5.62709,1.875 l 6.87881,-0.43452 -0.20427,5.22453 c -0.308,7.8779 3.2199,11.78196 13.0439,14.43467 7.65116,2.06599 12.37133,5.52302 12.37133,9.06071 0,3.37319 -5.16071,8.15509 -8.80111,8.15509 -2.82898,0 -4.51572,-1.20768 -7.72178,-5.52868 z m 20.93532,-27.28382 c -1.97888,-2.81186 -1.97758,-2.81264 5.67719,-3.4375 l 7.65652,-0.625 -2.90103,-3.75 c -3.25311,-4.20511 -6.03618,-6.5084 -11.64207,-9.63511 -2.10542,-1.1743 -3.18849,-2.15868 -2.40681,-2.1875 3.07353,-0.1133 13.69634,8.40142 17.86861,14.32261 2.42219,3.4375 3.57287,5.59674 2.55707,4.79832 -2.27797,-1.79049 -8.69098,-0.7084 -9.58333,1.61703 -1.01207,2.63741 -5.02491,2.02497 -7.22615,-1.10285 z m -9.72493,-20.51535 c 0.85937,-0.34677 2.26562,-0.34677 3.125,0 0.85937,0.34676 0.15625,0.63048 -1.5625,0.63048 -1.71875,0 -2.42188,-0.28372 -1.5625,-0.63048 z"
         id="path4153"
         inkscape:connector-curvature="0" />
      <path
         style="fill:#91141b"
         d="m 252.61083,921.135 c 0.90235,-0.36109 1.98047,-0.31668 2.39584,0.0987 0.41536,0.41537 -0.32292,0.71081 -1.64063,0.65653 -1.45618,-0.06 -1.75237,-0.35618 -0.75521,-0.75521 z m 20.23438,-9.77111 c 1.61468,-1.71875 3.21704,-3.125 3.56079,-3.125 0.34375,0 -0.69611,1.40625 -2.31079,3.125 -1.61468,1.71875 -3.21704,3.125 -3.56079,3.125 -0.34375,0 0.69611,-1.40625 2.31079,-3.125 z m 0.4001,-8.44604 c -1.49869,-2.22968 -3.67205,-6.45184 -4.82967,-9.38258 -3.13378,-7.93373 -7.95391,-10.79564 -18.39511,-10.92195 -9.52831,-0.11526 -11.16679,-1.27164 -10.62597,-7.49943 0.31331,-3.6079 0.58082,-3.76454 7.05928,-4.13376 6.68022,-0.38071 6.7812,-0.33229 12.73015,6.10482 5.01138,5.42261 6.4721,6.33927 8.89137,5.57967 1.59217,-0.49991 4.10164,-0.99708 5.57662,-1.10482 1.47497,-0.10775 3.77062,-1.18151 5.10144,-2.38614 1.33082,-1.20462 2.7959,-1.814 3.25573,-1.35416 1.89779,1.89778 0.75652,18.59866 -1.63028,23.85689 -1.32628,2.92187 -2.86081,5.30866 -3.41004,5.30396 -0.54924,-0.005 -2.22482,-1.83282 -3.72352,-4.0625 z m -57.77782,-4.86549 c -2.13801,-6.1331 -1.63349,-18.49249 0.99073,-24.27019 1.26946,-2.79495 4.09467,-7.11649 6.27823,-9.60344 4.51804,-5.14576 15.29128,-10.98103 20.04169,-10.85547 2.21676,0.0586 1.45002,0.55413 -2.50944,1.62184 -6.57809,1.77386 -12.03337,5.36492 -16.89456,11.12125 l -3.41814,4.04754 3.94461,0.3917 c 2.16953,0.21543 3.9446,0.97954 3.9446,1.69801 0,0.77999 1.29926,0.98022 3.22474,0.49695 2.71599,-0.68167 3.11132,-0.45202 2.50585,1.45565 -0.39539,1.24576 -0.21161,4.03378 0.4084,6.19561 1.03636,3.6136 0.83381,4.05215 -2.51161,5.43787 -4.43391,1.83659 -10.80913,8.87099 -11.86983,13.09713 -1.05196,4.19137 -2.48399,3.9024 -4.13527,-0.83445 z m 48.87772,-22.56347 c -2.33671,-2.33671 -1.78312,-3.20744 1.625,-2.55594 1.82419,0.34872 3.125,0.0164 3.125,-0.79834 0,-0.76765 1.70729,-1.39572 3.79398,-1.39572 3.25218,0 3.62371,-0.31816 2.60164,-2.2279 -1.93373,-3.6132 -7.89571,-9.08549 -12.62183,-11.58511 -2.41933,-1.27957 -3.75924,-2.35136 -2.97756,-2.38175 3.0691,-0.11929 13.69425,8.39561 17.86861,14.31976 2.42219,3.4375 3.57287,5.61275 2.55707,4.83388 -2.43182,-1.8646 -9.97191,-0.68655 -9.97191,1.55799 0,2.12823 -3.95137,2.28176 -6,0.23313 z m -10.5625,-21.82785 c 0.85937,-0.34677 2.26562,-0.34677 3.125,0 0.85937,0.34676 0.15625,0.63048 -1.5625,0.63048 -1.71875,0 -2.42188,-0.28372 -1.5625,-0.63048 z"
         id="path4151"
         inkscape:connector-curvature="0" />
      <path
         style="fill:#67151a"
         d="m 276.39953,891.05139 c -3.84632,-7.62628 -4.23035,-9.0625 -2.4232,-9.0625 1.18111,0 3.31867,-1.09113 4.75012,-2.42473 1.43145,-1.3336 2.94376,-2.0836 3.3607,-1.66667 1.02303,1.02304 0.80014,17.98578 -0.2673,20.3414 -0.58419,1.28919 -2.27766,-0.9564 -5.42032,-7.1875 z m -62.23081,-4.12957 c -0.12288,-13.69424 7.56635,-25.4592 20.46977,-31.31992 2.79495,-1.26946 6.48797,-2.28249 8.20672,-2.25119 1.97217,0.0359 0.91779,0.65048 -2.85815,1.6659 -9.34607,2.51335 -19.88248,12.55893 -22.68053,21.62399 l -0.85707,2.77671 6.94791,-3.18086 c 8.18245,-3.74605 12.98166,-3.779 8.60759,-0.0591 -5.89403,5.01255 -14.86797,14.07626 -16.27374,16.43654 -1.25831,2.11268 -1.50038,1.23084 -1.5625,-5.69207 z m 50.50009,-11.26609 c -0.45317,-0.73324 -0.60242,-1.55468 -0.33168,-1.82543 0.85858,-0.85858 6.00808,0.90222 6.00808,2.05438 0,1.56423 -4.68494,1.37527 -5.6764,-0.22895 z m -24.8466,-2.58189 c 0.81932,-1.32568 15.14522,-1.45808 15.95394,-0.14745 0.31816,0.51562 -3.29219,1.00385 -8.023,1.08495 -4.73081,0.0811 -8.29973,-0.34077 -7.93094,-0.9375 z m 35.91919,-4.52245 c -5.17717,-6.44273 -7.56918,-8.54638 -13.44315,-11.82261 -2.10542,-1.1743 -3.18849,-2.15868 -2.40681,-2.1875 2.98597,-0.11007 13.64652,8.32751 17.7012,14.01011 2.33011,3.26562 3.94033,5.9375 3.57825,5.9375 -0.36207,0 -2.80534,-2.67188 -5.42949,-5.9375 z m -21.95869,-14.89035 c 0.85937,-0.34677 2.26562,-0.34677 3.125,0 0.85937,0.34676 0.15625,0.63048 -1.5625,0.63048 -1.71875,0 -2.42188,-0.28372 -1.5625,-0.63048 z"
         id="path4149"
         inkscape:connector-curvature="0" />
    </g>
    <text
       xml:space="preserve"
       style="font-style:normal;font-weight:normal;font-size:120px;line-height:125%;font-family:sans-serif;letter-spacing:0px;word-spacing:0px;fill:#000000;fill-opacity:1;stroke:none;stroke-width:1px;stroke-linecap:butt;stroke-linejoin:miter;stroke-opacity:1"
       x="75.131813"
       y="910.5874"
       id="text4163"
       sodipodi:linespacing="125%"><tspan
         sodipodi:role="line"
         id="tspan4165"
         x="75.131813"
         y="910.5874"
         style="font-style:normal;font-variant:normal;font-weight:600;font-stretch:normal;font-size:180px;line-height:125%;font-family:FreeSans;-inkscape-font-specification:'FreeSans, Semi-Bold';text-align:start;writing-mode:lr-tb;text-anchor:start">SciPy</tspan></text>
  </g>
</svg>
