<?xml version="1.0" encoding="UTF-8" standalone="no"?>
<svg
   xmlns:dc="http://purl.org/dc/elements/1.1/"
   xmlns:cc="http://creativecommons.org/ns#"
   xmlns:rdf="http://www.w3.org/1999/02/22-rdf-syntax-ns#"
   xmlns:svg="http://www.w3.org/2000/svg"
   xmlns="http://www.w3.org/2000/svg"
   xmlns:xlink="http://www.w3.org/1999/xlink"
   xmlns:sodipodi="http://sodipodi.sourceforge.net/DTD/sodipodi-0.dtd"
   xmlns:inkscape="http://www.inkscape.org/namespaces/inkscape"
   width="705.63013"
   height="455.73251"
   id="svg2"
   version="1.1"
   inkscape:version="0.91 r13725"
   sodipodi:docname="sympy.svg">
  <metadata
     id="metadata117">
    <rdf:RDF>
      <cc:Work
         rdf:about="">
        <dc:format>image/svg+xml</dc:format>
        <dc:type
           rdf:resource="http://purl.org/dc/dcmitype/StillImage" />
        <dc:title>SymPy Logo, with tail.</dc:title>
      </cc:Work>
    </rdf:RDF>
  </metadata>
  <sodipodi:namedview
     pagecolor="#ffffff"
     bordercolor="#666666"
     borderopacity="1"
     objecttolerance="10"
     gridtolerance="10"
     guidetolerance="10"
     inkscape:pageopacity="0"
     inkscape:pageshadow="2"
     inkscape:window-width="1871"
     inkscape:window-height="1062"
     id="namedview115"
     showgrid="false"
     fit-margin-top="0"
     fit-margin-left="0"
     fit-margin-right="0"
     fit-margin-bottom="0"
     inkscape:zoom="0.31466667"
     inkscape:cx="354.16814"
     inkscape:cy="140.68908"
     inkscape:window-x="49"
     inkscape:window-y="18"
     inkscape:window-maximized="1"
     inkscape:current-layer="svg2" />
  <title
     id="title4">SymPy Logo, with tail.</title>
  <desc
     id="desc6">I created this logo and permit its free use on the same terms as the rest of Sympy's code and documentation. Fredrik Johansson</desc>
  <defs
     id="defs8">
    <linearGradient
       id="a">
      <stop
         offset="0"
         stop-color="#fff"
         id="stop11" />
      <stop
         offset="1"
         stop-color="#fff"
         stop-opacity="0"
         id="stop13" />
    </linearGradient>
    <linearGradient
       x1="123.534"
       y1="182.213"
       x2="43.330002"
       y2="182.213"
       id="b"
       xlink:href="#a"
       gradientUnits="userSpaceOnUse" />
    <mask
       id="c">
      <path
         d="m 43.331,182.213 81.203,0 0,185.818 -81.203,0 z"
         id="path17"
         inkscape:connector-curvature="0"
         style="fill:url(#b)" />
      <path
         d="m 123.534,0 800,0 0,800 -800,0 z"
         id="path19"
         inkscape:connector-curvature="0"
         style="fill:#ffffff" />
    </mask>
  </defs>
  <g
     mask="url(#c)"
     transform="translate(-27.831859,-49.956567)"
     id="g25">
    <path
       d="m 170.921,334.283 c 0,0 -17.667,-10.234 -40.08,-15.976 -22.413,-5.741 -26.896,-4.243 -49.573,-6.99 -22.677,-2.745 -41.135,-3.993 -41.135,-3.993 L 39.08,228.44 c 0,0 33.08,3.744 59.448,7.988 26.369,4.244 27.927,4.493 46.026,8.987 18.098,4.493 26.368,8.986 26.368,8.986 l 0,79.881 z"
       id="path27"
       inkscape:connector-curvature="0"
       style="fill:#72ba45;fill-rule:evenodd;stroke:#293720;stroke-width:8" />
    <path
       d="m 162.55,277.048 c 0,0 -22.75,-10.265 -55,-15.764 -32.25,-5.499 -75,-8.23 -75,-8.23 l -0.5,-9.863 c 0,0 44.5,2.082 77.5,7.03 33,4.95 53,12.765 53,12.765 l 0,14.062 z"
       id="path29"
       inkscape:connector-curvature="0"
       style="fill:#c7e06d;fill-rule:evenodd;stroke:#c7e06d;stroke-width:8;stroke-opacity:0.53899997" />
    <path
       d="m 167.586,331.034 c 0,0 -13.25,-9.404 -45.5,-16.035 -32.25,-6.63 -84.914,-8.389 -84.914,-8.389 l 0.414,-30.091 c 0,0 44,0.917 77,6.885 33,5.967 52.5,13.913 52.5,13.913 l 0.5,33.717 z"
       id="path31"
       inkscape:connector-curvature="0"
       style="fill:#2e642c;fill-rule:evenodd" />
    <path
       d="m 167.207,314.62 c 0,0 -13.25,-10.3 -45.5,-14.74 -32.25,-4.442 -84.914,-5.62 -84.914,-5.62 l 0.414,-20.155 c 0,0 44,3.614 77,7.611 33,3.997 52.5,14.32 52.5,14.32 l 0.5,18.584 z"
       id="path33"
       inkscape:connector-curvature="0"
       style="fill:#4f873b;fill-rule:evenodd" />
    <g
       id="g35"
       style="opacity:0.647;fill:#3b4f87;stroke:#066506;stroke-width:8;stroke-linejoin:bevel">
      <path
         d="M 157.447,283.726"
         id="path37"
         inkscape:connector-curvature="0"
         style="opacity:0.5" />
    </g>
  </g>
  <path
     d="m 144.79814,73.774433 200,59.999997 0,270 -200,-60 0,-269.999997 z"
     id="path39"
     inkscape:connector-curvature="0"
     style="fill:#decd85;fill-rule:evenodd;stroke:#505050;stroke-width:8;stroke-opacity:0.61799999" />
  <path
     d="m 544.79814,73.774433 -200,59.999997 0,270 200,-60 0,-269.999997 z"
     id="path41"
     inkscape:connector-curvature="0"
     style="fill:#b9b083;fill-rule:evenodd;stroke:#505050;stroke-width:8" />
  <path
     d="m 144.79814,73.775433 200,59.999997 200,-59.999997 -200,-69.9999996 -200,69.9999996 z"
     id="path43"
     inkscape:connector-curvature="0"
     style="fill:#eee5bd;fill-rule:evenodd;stroke:#505050;stroke-width:8;stroke-linejoin:bevel;stroke-opacity:0.65799997" />
  <path
     d="m 382.86814,371.00243 c -4.827,1.944 -9.05,2.136 -12.67,0.575 -3.511,-1.605 -5.174,-5.005 -4.99,-10.2 0.09,-2.53 0.819,-4.793 2.187,-6.789 1.478,-2.04 3.15,-3.435 5.014,-4.186 1.865,-0.751 3.429,-0.66 4.693,0.276 1.374,0.89 2.016,2.6 1.926,5.132 -0.085,2.397 -0.757,4.571 -2.015,6.523 -1.259,1.95 -2.77,3.413 -4.535,4.386 2.753,1.649 6.268,1.61 10.545,-0.112 10.64,-4.287 16.449,-20.215 17.428,-47.786 l 4.554,-128.264 c 0.435,-12.253 3.5,-23.991 9.197,-35.213 5.81,-11.4 13.158,-18.89 22.042,-22.469 4.826,-1.944 8.994,-2.113 12.505,-0.508 3.62,1.561 5.339,4.939 5.154,10.133 -0.094,2.664 -0.88,5.016 -2.358,7.055 -1.364,1.863 -2.978,3.17 -4.843,3.92 -1.864,0.752 -3.486,0.748 -4.864,-0.01 -1.265,-0.934 -1.85,-2.733 -1.755,-5.397 0.085,-2.398 0.757,-4.572 2.016,-6.523 1.258,-1.951 2.77,-3.413 4.534,-4.387 -2.752,-1.648 -6.268,-1.61 -10.545,0.113 -10.64,4.286 -16.449,20.215 -17.427,47.785 l -4.555,128.264 c -0.435,12.254 -3.555,24.014 -9.36,35.28 -5.702,11.355 -12.994,18.823 -21.879,22.402"
     font-size="180"
     font-weight="400"
     id="path45"
     inkscape:connector-curvature="0"
     style="font-weight:400;font-size:180px;font-family:LMRoman10, FreeSerif, times;text-anchor:middle;fill:#897751" />
  <g
     font-size="110"
     font-weight="400"
     id="g47"
     style="font-weight:400;font-size:110px;font-family:LMRoman10, Times, FreeSerif;fill:#897751"
     transform="translate(-20.831859,-59.956567)">
    <path
       d="m 498.488,337.249 0,-4.136 c -6.35,1.983 -7.075,1.276 -7.075,-5.26 l 0,-80.968 -13.063,5.545 0,4.135 c 6.35,-1.982 7.076,-1.275 7.076,5.261 l 0,28.812 c -2.63,-3.98 -6.532,-6.23 -11.43,-4.702 -10.704,3.342 -20.229,19.388 -20.229,36.595 0,16.94 8.89,27.37 19.231,24.142 5.806,-1.812 9.888,-7.622 12.156,-12.598 l 0,8.804 13.334,-5.63 m -13.334,-11.578 c 0,2.401 0,2.668 -0.998,5.247 -2.722,7.253 -6.804,11.461 -10.704,12.68 -4.082,1.273 -7.348,-1.175 -9.525,-5.564 -2.359,-4.733 -2.63,-12.251 -2.63,-17.72 0,-4.936 0.18,-12.996 2.811,-19.82 1.905,-4.73 5.352,-10.207 10.25,-11.736 3.176,-0.991 6.986,-0.18 9.798,4.945 0.998,1.956 0.998,2.223 0.998,4.624 l 0,27.344"
       id="path49"
       inkscape:connector-curvature="0" />
    <path
       d="m 545.444,303.515 c 0,-1.334 -0.725,-1.107 -1.36,-0.909 -1.089,0.34 -1.18,0.502 -1.633,2.777 -2.45,12.236 -6.985,18.855 -10.795,20.044 -1.814,0.566 -4.263,-0.27 -4.263,-7.206 0,-3.201 0.998,-9.249 1.723,-14.01 l 3.084,-19.238 c 1.27,-7.332 3.72,-15.433 7.983,-16.764 0.272,-0.085 2.54,-0.793 3.991,0.621 -3.628,2.467 -3.628,7.536 -3.628,7.536 0,1.734 0.816,4.013 3.175,3.277 1.633,-0.51 4.445,-3.255 4.445,-8.457 0,-6.803 -5.262,-6.761 -7.892,-5.94 -4.99,1.557 -7.983,9.028 -8.89,11.846 -1.996,-7.38 -6.44,-7.06 -8.708,-6.352 -9.071,2.831 -13.97,21.835 -13.97,24.903 0,1.334 0.907,1.05 1.36,0.909 1.18,-0.368 1.18,-0.502 1.634,-2.778 2.449,-12.236 7.166,-18.91 10.794,-20.043 2.63,-0.821 4.354,1.709 4.354,7.044 0,3.201 -1.088,10.077 -1.904,15.268 l -2.087,12.79 c -1.451,9.123 -3.356,20.389 -8.799,22.088 -0.272,0.085 -2.45,0.764 -3.991,-0.622 2.721,-1.916 3.538,-5.506 3.538,-7.507 0,-3.468 -1.905,-3.674 -3.085,-3.306 -2.267,0.708 -4.535,4.218 -4.535,8.62 0,5.202 3.81,7.08 7.982,5.778 4.355,-1.36 7.348,-7.363 8.89,-11.846 1.814,7.037 6.26,7.116 8.618,6.38 9.343,-2.917 13.97,-22.235 13.97,-24.903"
       font-style="italic"
       id="path51"
       inkscape:connector-curvature="0"
       style="font-style:italic" />
  </g>
  <path
     d="m 310.26514,293.12943 -5.116,-1.557 c -3.683,47.469 -17.597,51.09 -49.722,41.31 l -56.474,-17.19 51.359,-67 c 1.841,-2.349 1.841,-4.094 1.841,-4.094 0,-1.455 -0.818,-3.16 -1.432,-4.51 l -41.947,-98.893 47.267,14.388 c 34.58,10.526 44.811,24.115 49.108,71.395 l 5.116,1.557 -5.73,-67.21 -113.562,-34.569 c -4.911,-1.495 -5.32,-1.62 -5.32,5.073 l 50.95,120.837 -48.7,64.027 c -2.046,2.578 -2.046,3.16 -2.046,4.032 0,3.201 2.046,3.824 5.116,4.758 l 113.563,34.569 5.729,-66.923"
     font-size="244"
     font-weight="400"
     id="path53"
     inkscape:connector-curvature="0"
     style="font-weight:400;font-size:244px;font-family:LMRoman10, Times, FreeSerif;fill:#897751" />
  <g
     font-size="50"
     font-weight="700"
     id="g55"
     style="font-weight:700;font-size:50px;font-family:LMRoman10, Times, FreeSerif;fill:#9a8354"
     transform="translate(-20.831859,-59.956567)">
    <path
       d="m 323.834,128.032 -3.125,-0.83 -9.986,2.617 -38.3,-10.157 c -1.463,-0.388 -2.128,-0.564 -3.983,-0.078 -0.784,0.205 -0.927,0.243 -1.103,0.534 -1.702,2.444 -9.05,4.368 -10.547,4.76 l -1.427,0.374 3.126,0.829 1.426,-0.374 c 1.141,-0.299 4.998,-1.344 7.943,-2.781 l 34.377,9.116 -9.914,2.597 3.125,0.829 c 2.939,-0.875 10.5,-2.856 13.995,-3.771 3.495,-0.916 11.056,-2.896 14.393,-3.665 m 49.549,-24.159 c -6.45,-1.71 -22.414,-5.906 -39.604,-1.403 -17.19,4.502 -1.436,8.717 5.08,10.445 6.584,1.746 22.015,5.8 39.205,1.298 17.119,-4.484 1.968,-8.577 -4.681,-10.34 m -9.928,2.18 c 3.723,0.987 9.774,2.591 12.733,3.64 5.185,1.9 1.622,3.324 -0.518,3.885 -2.567,0.672 -8.025,1.33 -13.806,0.287 -4.1,-0.75 -11.015,-2.583 -14.672,-3.553 -4.788,-1.27 -9.11,-2.415 -11.997,-3.482 -5.062,-1.793 -0.734,-3.277 0.978,-3.726 2.64,-0.691 6.827,-1.122 11.108,-0.701 3.673,0.335 10.721,2.204 16.174,3.65 m 40.075,41.796 c -6.45,-1.71 -22.413,-5.906 -39.603,-1.403 -17.19,4.502 -1.436,8.718 5.08,10.446 6.584,1.745 22.015,5.8 39.205,1.297 17.119,-4.484 1.968,-8.577 -4.681,-10.34 m -9.928,2.18 c 3.723,0.987 9.774,2.592 12.733,3.64 5.185,1.9 1.622,3.325 -0.518,3.885 -2.567,0.673 -8.025,1.331 -13.806,0.287 -4.1,-0.749 -11.015,-2.583 -14.672,-3.552 -4.788,-1.27 -9.11,-2.416 -11.997,-3.482 -5.062,-1.794 -0.734,-3.278 0.978,-3.726 2.639,-0.692 6.827,-1.123 11.108,-0.702 3.673,0.335 10.721,2.204 16.174,3.65 m 96.906,-13.782 -3.125,-0.829 -9.986,2.616 -38.3,-10.156 c -1.464,-0.388 -2.129,-0.564 -3.983,-0.079 -0.785,0.206 -0.927,0.243 -1.104,0.535 -1.702,2.444 -9.049,4.368 -10.547,4.76 l -1.426,0.374 3.125,0.829 1.426,-0.374 c 1.142,-0.299 4.998,-1.344 7.943,-2.782 l 34.378,9.116 -9.915,2.597 3.125,0.83 c 2.94,-0.876 10.5,-2.856 13.995,-3.772 3.495,-0.915 11.056,-2.896 14.394,-3.665"
       id="path57"
       inkscape:connector-curvature="0" />
  </g>
  <g
     font-size="160"
     font-weight="700"
     id="g59"
     style="font-weight:700;font-size:160px;font-family:LMRoman10, Times, FreeSerif;fill:#9a8354"
     transform="translate(-20.831859,-59.956567)">
    <path
       d="m 388.08,174.23 -9.41,-2.782 -8.41,2.456 -135.454,-40.037 8.41,-2.456 -9.41,-2.781 -13.344,3.896 154.275,45.6 13.344,-3.896 m 132.187,-38.594 -154.275,-45.6 -13.344,3.896 9.41,2.781 8.412,-2.456 135.453,40.037 -8.41,2.456 9.41,2.782 13.344,-3.896"
       id="path61"
       inkscape:connector-curvature="0" />
  </g>
  <g
     id="g63"
     transform="translate(-20.831859,-59.956567)">
    <g
       id="g65"
       style="fill-rule:evenodd;stroke:#000000">
      <path
         d="m 354,268.362 c -16.75,-14 62.75,3.25 90,12 27.25,8.75 43.25,17 60,31 11.335,9.474 24.424,31.777 26.491,45.082 0.988,6.357 5.319,60.747 -3.491,57.918 -1.07,-0.343 -30.58,10.45 -14.98,4.111 C 546.734,404.367 370.093,281.813 354,268.363 Z"
         id="path67"
         inkscape:connector-curvature="0"
         style="opacity:0.5" />
      <path
         d="m 231.158,203.796 c -4.671,41.78 23.21,78.944 53.621,101.29 23.936,17.764 50.202,35.462 79.734,38.667 22.63,-2 51.61,-4.883 64.277,19.818 18.5,14.193 34.73,-17.247 22.163,-32.731 -20.506,-31.161 -53.926,-48.247 -83.707,-67.327 -45.583,-26.678 -81.427,-66.818 -127.846,-91.7 -4.184,5.413 -6.452,18.176 -8.242,31.983 z"
         id="path69"
         inkscape:connector-curvature="0"
         style="opacity:0.5;stroke-width:1.08200002" />
      <path
         d="m 525,119.362 c -54.438,-2.2 -110.702,-3.9 -162.714,15.007 -24.077,7.592 -46.17,28.992 -47.174,55.315 0.999,10.799 2.991,21.111 4.832,31.777 3.22,12.798 11.081,24.302 12.554,37.501 -5.683,5.294 -17.717,-4.57 -25.911,-5.404 -8.211,-4.666 -24.425,-4.155 -27.274,-12.29 l 9.687,-95.906 101,-46 135,20 z"
         id="path71"
         inkscape:connector-curvature="0"
         style="opacity:0.5" />
    </g>
    <path
       d="m 241.767,454.185 c -5.13,-4.399 -17.694,-21.133 -22.254,-26.632 -9.858,-11.89 5.441,-3.344 18.808,-0.175 38.312,10.521 82.085,24.112 120.355,34.615 21.393,-1.751 46.722,-6.403 64.085,-20.294 18.403,-24.124 22.835,-59.447 10.105,-87.073 -19.035,-24.884 -52.69,-29.63 -80.937,-38.095 -34.12,-7.743 -64.147,-27.048 -88.686,-51.56 -31.221,-25.392 -31.347,-71.701 -17.4,-106.329 8.156,-27.746 28.01,-52.043 55.788,-61.613 44.023,-19.4 92.768,-22.25 140.176,-19.603 45.647,2.045 91.171,10.306 133.402,28.134 19.526,7.871 35.512,8.143 56.876,4.457 10.857,3.85 23.302,9.705 29.783,16.19 11.743,11.752 18.034,32.848 28.669,45.226 20.131,22.851 -10.355,50.693 -34.593,36.824 -24.513,-7.428 -59.28,-0.938 -71.119,-30.095 -5.652,-15.945 -18.446,-20.323 -17.832,-40.598 -15.554,-14.82 -42.922,-17.184 -63.178,-20.58 -59.993,-9.003 -126.86,-11.641 -180.375,21.958 -22.552,13.85 -36.068,46.785 -20.636,70.298 19.63,19.337 49.71,19.974 74.76,28.008 48.574,11.079 101.244,28.81 128.598,73.798 14.287,23.12 14.071,51.742 15.905,78.057 1.098,41.76 -11.009,80.013 -55.886,107.912 -46.933,20.14 -87.039,16.763 -130.536,6.697 -37.849,-9.047 -63.904,-20.804 -93.878,-49.527 z"
       id="path73"
       inkscape:connector-curvature="0"
       style="fill:#72ba45;fill-rule:evenodd;stroke:#344829;stroke-width:8;stroke-linejoin:round" />
    <path
       d="M 635.78,185.064"
       id="path75"
       inkscape:connector-curvature="0"
       style="opacity:0.5;stroke:#505050;stroke-width:6;stroke-linejoin:round" />
    <path
       d="m 692.685,205.613 c 4.407,5.245 6.648,11.314 16.97,11.314 0.845,4.22 0,9.739 0,14.142 m -0.163,-14.134 c 0.018,0.09 11.987,0 16.97,0"
       id="path77"
       inkscape:connector-curvature="0"
       style="fill:none;stroke:#9d2020;stroke-width:6" />
    <g
       id="g79"
       style="fill-rule:evenodd">
      <path
         d="m 240.065,211.868 c 1.236,14.879 3.852,27.335 12.412,38.687 15.445,20.483 35.437,36.048 58.929,48.496 9.535,5.053 21.872,9.316 32.163,12.16 29.32,8.857 63.592,15.443 86.944,37.55 16.698,19.602 -1.213,-17.273 -16.59,-28.928 -42.868,-32.489 -105.805,-26.42 -145.424,-65.615 -11.298,-12.054 -22.169,-27.175 -28.434,-42.35 z M 516.949,360.51 c -1.92,36.12 -9.324,81.59 -33.952,107.824 -42.4,29.908 -111.311,31.942 -159.206,15.15 -26.049,-8.084 -46.169,-19.908 -69.904,-33.32 -9.286,-5.266 -21.151,-18.147 -25.032,-19.545 -5.428,-1.955 5.487,15.117 11.712,21.592 28.783,32.918 65.956,42.627 116.38,54.374 43.882,5.748 74.335,9.265 118.998,-17.756 31.703,-24.224 36.659,-44.21 41.633,-67.825 3.996,-36.676 1.156,-34.619 -0.63,-60.494 z M 300.358,211.832 c -9.583,-27.38 -5.844,-50.952 11.364,-65.682 21.448,-18.36 36.785,-24.06 67.88,-33.462 33.559,-2.85 48.228,-2.527 123.09,1.609 -57.348,-10.27 -133.433,-19.896 -186.618,8.781 -30.878,17.82 -44.484,59.197 -15.716,88.754 z M 569,132.862 c 1.303,1.146 1.694,7.735 6.255,14.896 4.561,7.161 8.08,7.018 11.99,13.75 3.91,6.732 2.085,6.589 3.649,13.177 1.563,6.589 3.91,13.893 2.606,13.177 -1.303,-0.716 -3.258,-8.594 -7.82,-16.041 -4.56,-7.448 -6.515,-6.589 -10.425,-13.75 -3.91,-7.162 -3.649,-8.594 -5.212,-14.896 -1.564,-6.302 -2.346,-11.459 -1.043,-10.313 z"
         id="path81"
         inkscape:connector-curvature="0"
         style="fill:#2e642c" />
      <path
         d="m 515.643,360.787 c -3.423,22.38 -10.29,50.824 -21.047,68.875 -18.65,24.062 -26.782,29.518 -51.234,41.497 -39.022,12.013 -89.72,16.621 -135.598,-1.02 -24.225,-8.379 -49.396,-16.185 -69.66,-33.567 -2.754,-5.435 -16.993,-13.102 -9.047,-1.515 19.068,33.027 54.276,48.307 87.415,57.314 35.226,9.613 73.007,16.515 108.735,5.852 36.396,-6.613 64.847,-25.709 83.514,-63.251 5.515,-12.862 9.004,-43.638 7.77,-57.786 0.053,-5.57 -1.394,-10.861 -0.848,-16.399 z M 240.424,201.096 c 1.236,14.88 3.852,27.335 12.412,38.687 15.445,20.483 35.437,36.048 58.93,48.496 9.534,5.053 21.871,9.316 32.163,12.16 29.32,8.857 62.09,18.943 85.444,41.05 8.197,7.102 -0.713,-11.773 -16.091,-23.427 -42.868,-32.49 -108.805,-28.421 -148.424,-67.616 -11.298,-12.054 -18.169,-34.175 -24.434,-49.35 z"
         id="path83"
         inkscape:connector-curvature="0"
         style="fill:#4f873b" />
    </g>
    <g
       id="g85"
       style="fill:#c7e06d">
      <path
         d="m 482.767,404.907 c -0.297,-28.042 -5.47,-77.538 -36.005,-100.975 -35.927,-36.025 -101.644,-26.7 -143.427,-52.779 -17.191,-15.58 29.212,-4.309 67.802,5.383 39.27,9.143 86.228,17.742 109.843,52.021 19.125,32.544 22.726,74.716 1.787,96.35 z"
         id="path87"
         inkscape:connector-curvature="0"
         style="fill-rule:evenodd;stroke:#c7e06d;stroke-width:13.42300034;stroke-opacity:0.52600002" />
      <path
         d="m 256.158,199.54 c -4.75,-27.326 2.952,-57.616 24.605,-75.983 32.02,-28.124 75.849,-37.042 117.36,-37.853 57.225,-2.748 114.83,5.845 168.764,25.166 13.389,4.67 26.76,9.484 39.655,15.401 -42.821,-8.274 -84.183,-23.646 -127.729,-28.448 -35.398,-4.295 -71.325,-5.582 -106.863,-2.826 -30.695,4.1 -64.043,10.443 -85.85,34.485 -12.762,10.444 -21.751,25.323 -22.778,42.019 -3.986,18.828 2.038,40.066 15.704,52.92 15.245,10.624 14.667,11.294 26.254,15.847 7.06,2.773 7.122,3.867 8.613,7.995 0.754,2.084 -0.405,4.243 1.347,6.001 -7.055,-1.23 -12.48,-1.657 -18.449,-4.487 -6.479,-3.07 -10.983,-6.205 -20.493,-14.127 -10.188,-10.422 -18.287,-20.657 -20.14,-36.11 z"
         id="path89"
         inkscape:connector-curvature="0"
         style="fill-rule:evenodd;stroke:#c7e06d;stroke-width:8;stroke-opacity:0.51300001" />
      <path
         d="m 653.5,134.862 c 0.649,3.244 -4.853,-4.515 -7.5,-6.5 -2.738,-2.053 -5.709,-2.354 -8,-3.5 -2.737,-1.368 -3.231,-2.231 -5.5,-4.5 -4.012,-4.012 3.476,-1.5 7,-1.5 1.877,0 6.783,3.892 9,5 2.614,1.307 5.535,3.026 7.5,4.5 2.055,1.541 2.147,3.794 3,5.5 0.833,1.667 -3.732,0.41 -5.5,1 z m 25,67.5 c -2.386,3.182 4.855,-4.21 7,-8.5 1.032,-2.064 0.034,-8.864 -0.5,-11 -0.832,-3.33 -2.55,-5.4 -4.5,-8 -1.616,-2.154 5.092,1.796 7.5,3 1.583,0.792 2,4.024 2,6.5 l 0,7.5 c 0,2.693 -1.068,5.637 -2,7.5 -0.71,1.42 -2.95,1 -4.5,1 m -76.731,-23.297 c 3.955,-7.234 9.596,-9.9 19.799,-9.9 11.272,0 16.396,0.265 11.313,-9.9 -3.822,-7.643 -8.858,-10.567 -4.242,-19.798 6.159,-12.318 -9.17,-3.023 -11.314,-1.415 -7.89,5.918 -12.206,5.657 -22.627,5.657 -6.033,0 -4.243,3.166 -4.243,8.485"
         id="path91"
         inkscape:connector-curvature="0"
         style="opacity:0.5" />
    </g>
    <g
       id="g93"
       style="opacity:0.647;fill:#3b4f87;stroke:#066506;stroke-linejoin:bevel">
      <path
         d="M 572.978,116.786"
         id="path95"
         inkscape:connector-curvature="0"
         style="opacity:0.5;stroke-width:8" />
      <path
         d="M 493.56,88.576"
         transform="matrix(0.8537,0,0,0.67415,68.154,36.774)"
         id="path97"
         inkscape:connector-curvature="0"
         style="opacity:0.5;stroke-width:8" />
      <path
         d="M 446.527,92.866"
         id="path99"
         inkscape:connector-curvature="0"
         style="opacity:0.5;stroke-width:8" />
      <path
         d="M 318.198,229.29"
         transform="matrix(1.19685,0,0,1.1615,-68.374,-27.617)"
         id="path101"
         inkscape:connector-curvature="0"
         style="opacity:0.5;stroke-width:6.78499985" />
      <path
         d="M 396.201,277.3"
         id="path103"
         inkscape:connector-curvature="0"
         style="opacity:0.5;stroke-width:8" />
      <path
         d="M 446.891,469.706"
         transform="matrix(1.57434,0,0,1.20182,-261.19,-78.884)"
         id="path105"
         inkscape:connector-curvature="0"
         style="opacity:0.5;stroke-width:5.81599998" />
      <path
         d="M 376.18,470.413"
         transform="matrix(1.44314,0,0,1.5521,-182.515,-247.01)"
         id="path107"
         inkscape:connector-curvature="0"
         style="opacity:0.5;stroke-width:5.34499979" />
      <path
         d="M 301.227,447.786"
         transform="matrix(1.3927,0,0,1.76951,-118.403,-332.374)"
         id="path109"
         inkscape:connector-curvature="0"
         style="opacity:0.5;stroke-width:5.09600019" />
    </g>
    <g
       id="g111"
       style="opacity:0.50700001">
      <path
         d="m 221.402,424.052 144.276,37.326 12.73,-3.999 c -3.836,4.513 -7.7,9.045 -12.418,12.756 -4.468,5.061 -1.453,11.98 -1.96,17.894 0.716,5.23 -2.01,12.175 -8.85,10.92 -9.778,-0.493 -18.58,-5.196 -28.002,-7.314 -21.217,-5.372 -42.872,-11.708 -61.22,-22.591 -16.587,-9.838 -29.94,-24.44 -44.91,-36.66 l 0.354,-8.332 z"
         id="path113"
         inkscape:connector-curvature="0"
         style="fill-rule:evenodd;stroke:#000000;stroke-width:0.97100002" />
    </g>
  </g>
</svg>
